<!DOCTYPE svg PUBLIC "-//W3C//DTD SVG 1.1//EN" "http://www.w3.org/Graphics/SVG/1.1/DTD/svg11.dtd">
<!-- Uploaded to: SVG Repo, www.svgrepo.com, Transformed by: SVG Repo Mixer Tools -->
<svg fill="#ffffff" version="1.1" id="Layer_1" xmlns="http://www.w3.org/2000/svg" xmlns:xlink="http://www.w3.org/1999/xlink" viewBox="0 0 511.986 511.986" xml:space="preserve" width="64px" height="64px">
<g id="SVGRepo_bgCarrier" stroke-width="0"/>
<g id="SVGRepo_tracerCarrier" stroke-linecap="round" stroke-linejoin="round"/>
<g id="SVGRepo_iconCarrier"> <g> <g> <path d="M209.297,5.229C93.887,5.229,0,99.121,0,214.526C0,329.93,93.887,423.822,209.297,423.822 c115.409,0,209.297-93.892,209.297-209.297C418.593,99.121,324.706,5.229,209.297,5.229z M209.297,402.893 c-103.862,0-188.367-84.5-188.367-188.367c0-103.866,84.505-188.367,188.367-188.367c103.861,0,188.367,84.501,188.367,188.367 C397.664,318.392,313.158,402.893,209.297,402.893z"/> </g> </g> <g> <g> <rect x="431.726" y="348.717" transform="matrix(0.7071 -0.7071 0.7071 0.7071 -179.4635 440.6595)" width="20.927" height="176.488"/> </g> </g> </g>
</svg>